<svg xmlns="http://www.w3.org/2000/svg"
shape-rendering="geometricPrecision"
width="4000" height="4000" viewBox="0 0 1024 1024"><rect width="100%" height="100%" fill="#FBFAFB" />
  <metadata>null</metadata>

<path d="
M 197.953 711.013
C 200.414 707.76 203.373 704.831 206.063 701.768
C 208.842 698.603 211.513 695.224 214.439 692.206
C 216.109 693.109 217.257 694.596 218.717 695.776
C 221.273 697.843 223.97 699.796 226.806 701.461
C 236.352 707.067 249.417 710 260.455 708.469
C 264.983 707.841 269.787 706.499 273.348 703.479
C 278.68 698.957 279.564 690.089 275.064 684.73
C 270.013 678.716 260.316 677.394 253.139 675.549
C 236.151 671.183 214.199 668.093 206.701 649.619
C 205.565 646.819 204.648 643.79 204.251 640.788
C 203.622 636.032 203.74 631.302 204.679 626.598
C 205.383 623.077 206.477 619.593 208.142 616.4
C 218.912 595.729 245.452 592.237 266.281 595.56
C 270.462 596.227 274.628 597.165 278.639 598.525
C 285.041 600.695 291.097 603.358 296.694 607.182
C 298.497 608.415 301.21 609.636 302.583 611.332
C 301.344 613.135 299.542 614.731 298.091 616.381
C 295.833 618.95 293.774 621.754 291.665 624.447
C 290.491 625.946 289.347 627.465 288.206 628.988
C 287.691 629.676 287.283 630.818 286.605 631.329
C 284.478 628.894 281.489 627.109 278.743 625.469
C 269.212 619.776 257.454 616.974 246.391 618.503
C 238.141 619.644 229.973 625.162 231.382 634.55
C 231.992 638.616 235.079 641.476 238.48 643.431
C 245.073 647.22 253.115 648.415 260.42 650.182
C 275.898 653.926 293.164 657.725 301.429 672.889
C 302.68 675.183 303.609 677.602 304.226 680.144
C 305.121 683.833 305.647 687.779 305.608 691.584
C 305.564 695.755 304.846 700.093 303.501 704.039
C 302.396 707.28 300.961 710.359 298.965 713.157
C 296.723 716.299 294.391 719.408 291.315 721.797
C 275.386 734.172 252.455 734.601 233.639 730.155
C 228.974 729.052 224.543 727.614 220.143 725.71
C 213.864 722.993 207.627 719.869 202.328 715.472
C 200.893 714.282 198.568 713.044 197.556 711.513
C 197.689 711.346 197.821 711.179 197.953 711.013 Z"
opacity="1" fill="rgb(95,47,10)" fill-rule="evenodd" />
<path d="
M 310.761 383.047
C 311.107 381.554 313.184 381.058 314.529 380.625
C 316.669 379.937 318.904 379.315 321.132 379.003
C 323.019 378.74 324.894 378.819 326.716 378.169
C 327.017 377.208 326.214 375.669 325.964 374.732
C 325.361 372.464 325.085 370.137 324.873 367.805
C 324.157 359.967 324.151 351.887 325.9 344.178
C 326.972 339.452 328.911 335.025 331.419 330.893
C 332.236 329.548 333.188 328.291 334.158 327.054
C 334.34 326.822 335.805 325.212 335.704 325.15
C 333.668 324.796 331.397 323.428 329.472 322.601
C 326.456 321.306 323.325 320.327 320.326 319.012
C 320.931 317.091 323.721 316.041 325.428 315.286
C 330.638 312.979 336.277 311.507 341.717 309.851
C 363.962 303.081 386.45 296.964 408.814 290.6
C 431.29 284.204 453.906 278.184 476.288 271.461
C 484.219 269.078 492.18 266.774 500.16 264.561
C 503.947 263.511 508.125 261.911 512.074 261.773
C 515.65 261.648 519.372 262.978 522.709 264.129
C 527.897 265.92 533.084 267.673 538.212 269.635
C 553.143 275.348 568.235 280.688 583.217 286.269
C 610.666 296.494 638.265 306.318 665.698 316.591
C 674.001 319.7 682.481 322.347 690.731 325.606
C 695.625 327.539 700.82 329.469 704.864 332.942
C 710.553 337.829 713.725 344.8 715.586 351.923
C 719.312 366.187 718.169 382.288 711.962 395.684
C 710.616 398.589 709.14 401.523 707.159 404.056
C 705.901 405.666 704.163 406.938 702.99 408.58
C 705.1 409.336 707.369 409.72 709 411.48
C 712.058 414.779 710.731 421.181 706.991 423.38
C 703.646 425.347 699.318 425.96 695.667 427.225
C 687.298 430.123 678.836 432.984 670.369 435.572
C 655.107 440.238 639.836 445.139 624.782 450.441
C 606.762 456.788 588.295 461.998 570.157 468.012
C 559.941 471.4 549.677 474.664 539.43 477.952
C 534.171 479.639 527.627 480.836 523.021 483.958
C 518.79 486.827 515.969 491.085 513.993 495.708
C 509.938 505.197 508.824 516.265 510.712 526.46
C 511.905 532.903 514.788 540.358 521.293 543.017
C 525.318 544.663 529.382 543.027 533.279 541.8
C 541.03 539.359 548.739 535.928 556.679 534.188
C 557.373 536.812 558.619 539.211 559.416 541.8
C 559.802 543.055 560.129 545.184 561.082 546.131
C 558.053 546.439 554.689 548.132 551.746 549.024
C 541.935 551.995 532.28 556.234 522.186 558.137
C 519.232 558.694 516.05 559.801 513.018 559.654
C 510.578 559.535 508.395 558.487 506.121 557.724
C 505.63 557.179 505.023 556.693 504.481 556.195
C 493.403 543.854 490.033 525.555 491.545 509.467
C 492.119 503.362 492.997 497.369 495.159 491.587
C 496.788 487.234 498.837 483.171 501.465 479.336
C 502.555 477.746 504.848 476.186 505.553 474.447
C 502.833 474.128 497.23 472.625 495.544 470.317
C 492.689 474.892 489.225 478.99 487.008 483.976
C 480.308 499.038 479.865 516.251 483.526 532.119
C 484.853 537.874 486.99 543.369 490.116 548.388
C 491.106 549.977 492.064 552.155 493.593 553.246
C 491.047 552.657 488.546 551.242 486.103 550.299
C 479.903 547.904 473.782 545.269 467.619 542.777
C 464.938 541.694 461.936 539.737 459.082 539.301
C 458.866 539.185 458.166 539 458.021 538.847
C 457.471 538.268 457.876 535.134 457.876 534.317
C 457.873 529.378 457.838 524.44 457.823 519.501
C 457.795 510.345 457.857 501.189 457.828 492.034
C 457.79 480.103 457.732 468.677 463.874 458.032
C 453.875 454.665 443.977 450.757 434.191 446.806
C 427.686 444.179 420.955 440.966 414.122 439.339
C 412.132 445.516 411.453 452.038 411.065 458.483
C 410.355 470.291 410.583 482.174 410.65 494.006
C 410.687 500.672 410.777 507.339 410.742 514.006
C 410.734 515.518 410.811 517.03 410.798 518.541
C 410.794 519.037 411.024 520.072 410.539 520.02
C 400.652 516.986 391.078 512.362 381.505 508.466
C 367.736 502.863 353.75 497.733 340.144 491.755
C 338.941 490.986 338.273 489.556 337.469 488.41
C 335.067 484.986 333.315 481.031 331.926 477.098
C 328.591 467.651 327.752 457.598 328.178 447.637
C 328.473 440.74 329.411 433.691 332.031 427.254
C 333.587 423.43 335.549 419.804 338.126 416.567
C 339.377 414.997 341.622 413.324 342.477 411.537
C 340.469 410.81 337.276 408.791 335.165 408.923
C 332.618 411.881 329.899 414.6 327.931 418.017
C 319.893 431.975 318.68 450.412 321.533 465.968
C 322.585 471.7 324.445 477.219 327.361 482.276
C 328.529 484.301 329.732 486.482 331.521 488.028
C 327.509 486.61 322.442 484.93 319.225 482.081
C 314.698 478.072 311.722 472.102 309.666 466.518
C 304.43 452.302 304.98 434.941 310.927 421.036
C 312.807 416.638 315.556 412.27 318.931 408.871
C 320.157 407.635 321.46 406.482 322.763 405.328
C 323.229 404.916 324.264 404.608 324.412 404.018
C 317.02 399.26 312.761 391.404 310.761 383.047 Z
M 362.982 335.828
C 362 335.804 360.893 334.978 359.964 334.623
C 357.462 333.667 354.314 332.021 351.617 331.952
C 348.986 336.348 345.694 340.168 343.9 345.054
C 340.523 354.251 341.146 363.939 341.599 373.517
C 341.72 376.075 341.449 378.621 341.634 381.181
C 341.777 383.154 344.002 384.991 345.342 386.269
C 345.934 386.834 347.127 387.543 347.029 388.438
C 346.272 389.167 345.64 390.075 344.766 390.676
C 342.561 392.193 338.048 393.307 337.003 396.075
C 349.928 400.427 362.585 405.833 375.368 410.612
C 418.438 426.713 461.234 443.59 504.333 459.579
C 505.742 459.844 507.4 459.329 508.795 459.03
C 512.302 458.278 515.631 457.009 519.07 456.036
C 531.104 452.63 542.981 448.551 554.914 444.806
C 585.101 435.332 615.225 425.657 645.442 416.282
C 655.139 413.274 664.853 410.331 674.539 407.288
C 679.237 405.812 685.012 404.969 689.31 402.561
C 700.468 396.309 704.223 381.65 704.259 369.816
C 704.269 366.798 704.094 363.778 703.486 360.817
C 702.228 354.697 699.772 348.11 694.044 344.831
C 688.475 341.642 683.061 344.134 677.391 345.619
C 664.445 349.01 651.705 353.177 638.864 356.94
C 610.252 365.326 581.711 373.928 553.065 382.191
C 543.896 384.836 534.737 387.525 525.55 390.102
C 521.349 391.28 516.552 393.531 512.116 393.279
C 506.697 392.972 501.85 388.921 496.644 387.677
C 493.228 385.258 488.075 384.263 484.175 382.783
C 475.489 379.489 466.817 376.139 458.147 372.807
C 435.056 363.934 412.013 354.951 388.98 345.929
C 380.367 342.555 371.332 339.826 362.982 335.828 Z
M 403.217 434.925
C 404.794 435.515 406.527 436.114 408.062 436.877
C 408.671 437.179 409.708 437.91 410.427 437.791
C 410.733 437.741 409.93 437.414 409.651 437.28
C 409.178 437.052 408.688 436.897 408.22 436.667
C 406.581 435.865 404.867 435.543 403.217 434.925 Z"
opacity="1" fill="rgb(95,46,10)" fill-rule="evenodd" />
<path d="
M 320.326 319.012
C 323.325 320.327 326.456 321.306 329.472 322.601
C 331.397 323.428 333.668 324.796 335.704 325.15
C 335.805 325.212 334.34 326.822 334.158 327.054
C 333.188 328.291 332.236 329.548 331.419 330.893
C 328.911 335.025 326.972 339.452 325.9 344.178
C 324.151 351.887 324.157 359.967 324.873 367.805
C 325.085 370.137 325.361 372.464 325.964 374.732
C 326.214 375.669 327.017 377.208 326.716 378.169
C 324.894 378.819 323.019 378.74 321.132 379.003
C 318.904 379.315 316.669 379.937 314.529 380.625
C 313.184 381.058 311.107 381.554 310.761 383.047
C 308.308 379.668 308.415 373.444 308.033 369.431
C 306.864 357.161 306.68 344.168 311.211 332.492
C 312.762 328.496 314.603 324.822 317.379 321.534
C 318.067 320.719 319.135 318.851 320.326 319.012 Z"
opacity="1" fill="rgb(245,164,37)" fill-rule="evenodd" />
<path d="
M 311.776 631.871
C 315.185 631.882 318.597 631.802 322.006 631.858
C 323.396 631.881 325.474 632.295 326.775 631.874
C 326.134 622.981 326.682 613.688 326.914 604.774
C 335.582 604.52 344.259 604.893 352.927 604.784
C 353.222 610.067 353.059 615.405 353.089 620.701
C 353.11 624.332 353.425 628.032 353.167 631.654
C 353.642 632.049 354.393 631.811 354.999 631.799
C 356.666 631.766 358.339 631.789 360.006 631.793
C 364.507 631.804 369.008 631.786 373.509 631.828
C 375.297 631.845 377.668 631.418 379.376 631.946
C 379.189 638.819 378.751 646.045 379.291 652.897
C 370.604 653.059 361.93 653.011 353.245 653.175
C 352.676 657.242 352.968 661.668 352.924 665.78
C 352.836 674.017 352.877 682.278 353.09 690.503
C 353.217 695.414 352.201 701.66 355.485 705.777
C 360.679 712.29 372.049 708.614 378.164 705.572
C 379.129 712.78 380.435 719.842 381.879 726.958
C 380.818 727.813 378.865 728.079 377.591 728.601
C 372.977 730.497 367.867 731.418 362.919 731.851
C 358.439 732.243 354.048 732.135 349.625 731.185
C 339.012 728.904 330.675 721.666 328.041 710.937
C 326.646 705.256 326.875 699.209 326.823 693.4
C 326.74 684.27 326.804 675.135 326.823 666.004
C 326.832 661.846 327.419 657.224 326.801 653.118
C 321.871 653.274 316.697 653.271 311.781 652.987
C 311.169 649.156 311.608 644.884 311.631 641.005
C 311.648 638.049 311.266 634.778 311.776 631.871 Z"
opacity="1" fill="rgb(95,47,10)" fill-rule="evenodd" />
<path d="
M 340.144 491.755
C 337.366 490.658 333.984 489.748 331.521 488.028
C 329.732 486.482 328.529 484.301 327.361 482.276
C 324.445 477.219 322.585 471.7 321.533 465.968
C 318.68 450.412 319.893 431.975 327.931 418.017
C 329.899 414.6 332.618 411.881 335.165 408.923
C 337.276 408.791 340.469 410.81 342.477 411.537
C 341.622 413.324 339.377 414.997 338.126 416.567
C 335.549 419.804 333.587 423.43 332.031 427.254
C 329.411 433.691 328.473 440.74 328.178 447.637
C 327.752 457.598 328.591 467.651 331.926 477.098
C 333.315 481.031 335.067 484.986 337.469 488.41
C 338.273 489.556 338.941 490.986 340.144 491.755 Z"
opacity="1" fill="rgb(248,167,36)" fill-rule="evenodd" />
<path d="
M 362.982 335.828
C 362.024 336.186 361.208 337.17 360.504 337.89
C 358.295 340.149 356.663 342.301 355.254 345.147
C 351.225 353.29 350.3 363.205 351.573 372.153
C 352.058 375.564 351.98 379.653 354.248 382.506
C 355.883 384.561 359.102 385.251 361.447 386.108
C 366.147 387.825 370.656 390.018 375.384 391.621
C 375.449 392.118 375.422 392.532 375 392.853
C 372.955 393.715 369.821 392.31 367.879 391.679
C 363.534 390.267 358.893 389.27 354.429 388.302
C 352.471 387.877 348.754 387.018 347.029 388.438
C 347.127 387.543 345.934 386.834 345.342 386.269
C 344.002 384.991 341.777 383.154 341.634 381.181
C 341.449 378.621 341.72 376.075 341.599 373.517
C 341.146 363.939 340.523 354.251 343.9 345.054
C 345.694 340.168 348.986 336.348 351.617 331.952
C 354.314 332.021 357.462 333.667 359.964 334.623
C 360.893 334.978 362 335.804 362.982 335.828 Z"
opacity="1" fill="rgb(249,172,44)" fill-rule="evenodd" />
<path d="
M 393.974 652.12
C 394.822 645.51 394.173 638.38 394.198 631.714
C 400.299 631.716 406.405 631.74 412.509 631.764
C 414.171 631.771 415.839 631.813 417.5 631.766
C 418.175 631.747 419.226 631.555 419.828 631.834
C 419.772 647.534 419.783 663.237 419.727 678.937
C 419.7 686.545 418.97 695.825 423.743 702.321
C 429.321 709.911 440.711 711.299 448.742 707.007
C 452.759 704.861 455.861 701.324 457.836 697.258
C 461.541 689.629 460.782 681.249 460.811 673.005
C 460.859 659.435 460.668 645.845 461.088 632.282
C 461.967 631.125 466.041 631.762 467.508 631.754
C 474.061 631.719 480.618 631.847 487.17 631.752
C 486.967 654.252 486.967 676.772 487.1 699.269
C 487.143 706.512 487.138 713.755 487.178 720.998
C 487.195 724.022 486.856 727.259 487.151 730.254
C 483.749 729.781 479.938 730.259 476.497 730.264
C 471.39 730.27 466.127 729.865 461.041 730.284
C 460.503 729.38 460.91 727.115 460.914 726.032
C 460.929 722.425 461.072 718.805 461.163 715.2
C 460.394 715.263 459.521 716.757 459.022 717.423
C 457.358 719.644 455.41 721.658 453.364 723.535
C 448.335 728.15 441.388 731.418 434.601 732.223
C 430.443 732.716 426.191 732.655 422.079 731.818
C 418.511 731.092 414.914 729.982 411.718 728.208
C 409.739 727.11 407.956 725.702 406.234 724.244
C 391.865 712.078 393.933 690.876 393.914 673.997
C 393.905 666.742 393.523 659.362 393.974 652.12 Z"
opacity="1" fill="rgb(95,47,10)" fill-rule="evenodd" />
<path d="
M 403.217 434.925
C 404.867 435.543 406.581 435.865 408.22 436.667
C 408.688 436.897 409.178 437.052 409.651 437.28
C 409.93 437.414 410.733 437.741 410.427 437.791
C 409.708 437.91 408.671 437.179 408.062 436.877
C 406.527 436.114 404.794 435.515 403.217 434.925 Z"
opacity="0.996" fill="rgb(116,55,10)" fill-rule="evenodd" />
<path d="
M 410.539 520.02
C 411.024 520.072 410.794 519.037 410.798 518.541
C 410.811 517.03 410.734 515.518 410.742 514.006
C 410.777 507.339 410.687 500.672 410.65 494.006
C 410.583 482.174 410.355 470.291 411.065 458.483
C 411.453 452.038 412.132 445.516 414.122 439.339
C 420.955 440.966 427.686 444.179 434.191 446.806
C 443.977 450.757 453.875 454.665 463.874 458.032
C 457.732 468.677 457.79 480.103 457.828 492.034
C 457.857 501.189 457.795 510.345 457.823 519.501
C 457.838 524.44 457.873 529.378 457.876 534.317
C 457.876 535.134 457.471 538.268 458.021 538.847
C 458.166 539 458.866 539.185 459.082 539.301
C 457.263 538.626 457.871 542.202 457.87 543.496
C 457.868 546.998 457.78 550.498 457.707 553.998
C 457.687 554.908 458.064 557.152 457.47 557.868
C 447.641 553.449 437.18 550.029 427.166 545.968
C 423.746 544.58 420.349 543.139 416.968 541.661
C 415.033 540.815 413.095 539.745 411.004 539.358
C 410.338 538.821 410.884 535.687 410.899 534.8
C 410.959 531.238 410.93 527.688 410.888 524.127
C 410.875 523.018 411.296 520.86 410.539 520.02 Z"
opacity="1" fill="rgb(245,164,40)" fill-rule="evenodd" />
<path d="
M 506.121 557.724
C 501.761 556.889 497.817 554.526 493.593 553.246
C 492.064 552.155 491.106 549.977 490.116 548.388
C 486.99 543.369 484.853 537.874 483.526 532.119
C 479.865 516.251 480.308 499.038 487.008 483.976
C 489.225 478.99 492.689 474.892 495.544 470.317
C 497.23 472.625 502.833 474.128 505.553 474.447
C 504.848 476.186 502.555 477.746 501.465 479.336
C 498.837 483.171 496.788 487.234 495.159 491.587
C 492.997 497.369 492.119 503.362 491.545 509.467
C 490.033 525.555 493.403 543.854 504.481 556.195
C 505.023 556.693 505.63 557.179 506.121 557.724 Z"
opacity="1" fill="rgb(249,167,39)" fill-rule="evenodd" />
<path d="
M 500.98 677.61
C 501.355 674.944 501.379 672.274 501.859 669.613
C 503.313 661.55 506.38 653.477 511.531 647.034
C 524.584 630.708 547.712 623.531 566.426 634.9
C 571.196 637.798 574.285 641.89 577.669 646.168
C 578.086 644.474 577.669 642.253 577.676 640.503
C 577.69 636.503 577.715 632.503 577.717 628.503
C 577.723 616.404 578.022 604.237 577.754 592.147
C 586.115 590.809 595.121 592.186 603.573 591.913
C 603.977 592.669 603.681 594.135 603.68 594.992
C 603.677 597.494 603.674 599.996 603.66 602.497
C 603.608 611.664 603.667 620.831 603.667 629.998
C 603.667 652.499 603.701 675.001 603.728 697.503
C 603.741 708.323 603.036 719.405 603.703 730.195
C 597.479 730.391 591.227 730.27 584.999 730.287
C 583.334 730.291 581.667 730.325 580.002 730.308
C 579.252 730.3 578.302 730.576 577.638 730.225
C 577.711 725.981 577.839 721.741 577.837 717.494
C 577.836 716.495 578.358 714.024 577.654 713.347
C 573.269 719.476 569.444 724.902 562.654 728.65
C 558.145 731.139 553.178 731.935 548.14 732.441
C 543.789 732.877 539.19 732.093 535 730.925
C 512.231 724.576 499.12 700.401 500.98 677.61 Z
M 526.922 675.603
C 525.594 685.623 528.699 698.198 536.845 704.729
C 547.013 712.881 562.009 711.621 570.864 702.041
C 574.807 697.774 577.163 692.09 577.94 686.386
C 579.086 677.985 577.98 668.598 572.678 661.687
C 564.67 651.25 548.726 647.471 537.778 655.623
C 531.569 660.245 527.921 668.063 526.922 675.603 Z"
opacity="1" fill="rgb(95,47,10)" fill-rule="evenodd" />
<path d="
M 592.19 522.333
C 593.284 525.331 594.18 528.23 594.886 531.351
C 595.081 532.215 595.103 534.086 595.892 534.531
C 597.049 544.246 598.151 553.585 597.821 563.437
C 597.746 565.672 597.703 567.902 597.476 570.122
C 597.448 570.398 597.801 572.197 597.588 572.241
C 596.186 570.143 593.643 568.827 591.74 567.241
C 588.273 564.353 585.03 561.159 581.522 558.336
C 579.716 559.341 578.376 562.555 577.169 564.242
C 573.918 568.786 570.539 573.185 566.977 577.486
C 565.955 578.721 564.977 579.992 563.976 581.244
C 563.593 581.722 563.071 582.69 562.458 582.859
C 563.33 579.794 563.152 576.302 563.269 573.14
C 563.61 563.944 562.398 555.184 561.082 546.131
C 560.129 545.184 559.802 543.055 559.416 541.8
C 558.619 539.211 557.373 536.812 556.679 534.188
C 553.529 527.317 548.395 521.304 542.216 516.915
C 540.423 515.641 538.406 514.442 536.399 513.538
C 535.442 513.107 533.778 513.315 533.13 512.492
C 535.433 511.183 538.299 510.535 540.781 509.599
C 547.925 506.906 555.251 504.75 562.511 502.397
C 564.764 501.667 567.046 501.006 569.314 500.322
C 570.486 499.969 571.735 499.536 572.879 500.18
C 578.565 503.382 583.873 508.114 587.492 513.556
C 588.822 515.555 589.885 517.655 590.891 519.829
C 591.184 520.463 591.557 522.013 592.19 522.333 Z"
opacity="1" fill="rgb(245,165,41)" fill-rule="evenodd" />
<path d="
M 592.19 522.333
C 594.098 521.865 596.06 520.839 597.974 520.212
C 604.375 518.112 610.745 515.937 617.099 513.699
C 636.107 507.003 655.349 500.973 674.416 494.446
C 681.548 492.004 688.775 489.848 695.905 487.4
C 699.962 486.007 704.285 484.067 708.622 484.107
C 712.174 487.125 711.481 492.961 708.29 495.967
C 706.367 497.779 703.381 498.508 700.939 499.306
C 697.085 500.564 693.283 502.005 689.405 503.188
C 674.898 507.613 660.691 513.02 646.249 517.655
C 629.447 523.047 612.398 528.29 595.892 534.531
C 595.103 534.086 595.081 532.215 594.886 531.351
C 594.18 528.23 593.284 525.331 592.19 522.333 Z"
opacity="1" fill="rgb(93,45,9)" fill-rule="evenodd" />
<path d="
M 618.464 680.119
C 618.821 676.67 618.806 673.262 619.46 669.834
C 620.946 662.036 624.283 654.621 629.125 648.325
C 645.871 626.551 681.023 623.122 700.566 643.053
C 712.021 654.735 716.294 673.426 714.369 689.36
C 701.16 688.593 687.734 689.417 674.504 689.404
C 668.004 689.398 661.504 689.407 655.005 689.413
C 651.281 689.416 647.454 689.169 643.76 689.643
C 644.074 692.538 644.736 695.331 646.243 697.86
C 656.182 714.538 681.023 714.893 693.006 700.293
C 695.007 701.615 696.878 703.7 698.715 705.28
C 702.524 708.556 706.444 711.709 710.271 714.963
C 709.39 716.462 707.192 717.651 705.913 718.848
C 699.933 724.446 691.855 728.349 683.951 730.304
C 659.347 736.393 631.495 726.081 621.982 701.26
C 619.444 694.639 618.298 687.203 618.464 680.119 Z
M 643.458 671.081
C 643.282 671.837 643.378 671.436 643.167 672.283
C 647.236 671.932 651.422 672.207 655.508 672.171
C 667.131 672.069 678.775 672.448 690.394 672.182
C 690.818 670.211 689.205 666.726 688.458 664.947
C 684.763 656.152 676.093 650.774 666.623 650.813
C 658.713 650.845 651.701 654.159 647.431 660.993
C 645.468 664.135 644.506 667.579 643.458 671.081 Z"
opacity="1" fill="rgb(95,47,10)" fill-rule="evenodd" />
<path d="
M 723.471 679.115
C 724.231 661.936 733.016 645.136 748.404 636.641
C 769.789 624.836 797.919 628.179 814.141 647.177
C 817.163 650.717 819.647 654.729 821.515 658.991
C 825.066 667.096 826.165 675.427 825.812 684.215
C 825.556 690.581 823.983 696.89 821.451 702.729
C 819.373 707.52 816.375 711.78 812.957 715.701
C 797.142 733.842 769.162 736.87 748.624 725.489
C 738.708 719.993 731.065 710.861 726.921 700.369
C 724.303 693.739 723.156 686.231 723.471 679.115 Z
M 749.462 675.603
C 748.033 685.488 750.865 697.47 758.897 703.99
C 767.385 710.88 780.288 711.526 789.159 705.047
C 795.212 700.626 798.729 693.615 799.746 686.319
C 801.096 676.634 798.702 665.194 791.227 658.419
C 789.021 656.42 786.353 654.643 783.566 653.577
C 781.137 652.648 778.638 651.968 776.031 651.842
C 761.854 651.157 751.415 662.087 749.462 675.603 Z"
opacity="1" fill="rgb(95,47,10)" fill-rule="evenodd" />

</svg>